<svg width="142" height="142" viewBox="0 0 142 142" fill="none" xmlns="http://www.w3.org/2000/svg">
<path id="Vector" fill-rule="evenodd" clip-rule="evenodd" d="M71 142C110.212 142 142 110.212 142 71C142 31.7878 110.212 0 71 0C31.7878 0 0 31.7878 0 71C0 110.212 31.7878 142 71 142ZM46.7591 46.7591C42.6 50.9181 42.6 57.6122 42.6 71C42.6 84.3878 42.6 91.0816 46.7591 95.2408C50.9181 99.4 57.6122 99.4 71 99.4C84.3878 99.4 91.0816 99.4 95.2408 95.2408C99.4 91.0816 99.4 84.3878 99.4 71C99.4 57.6122 99.4 50.9181 95.2408 46.7591C91.0816 42.6 84.3878 42.6 71 42.6C57.6122 42.6 50.9181 42.6 46.7591 46.7591Z" fill="#233B51"/>
</svg>
