<svg width="56" height="55" viewBox="0 0 56 55" fill="none" xmlns="http://www.w3.org/2000/svg">
<g id="facebook">
<path id="Vector" d="M27.8608 0C12.5374 0 0 12.3747 0 27.6157C0 41.396 10.1971 52.8337 23.5145 54.9007V35.6083H16.4379V27.6157H23.5145V21.5248C23.5145 14.6071 27.6658 10.8038 34.0459 10.8038C37.0827 10.8038 40.2589 11.3274 40.2589 11.3274V18.1349H36.7484C33.2937 18.1349 32.2071 20.257 32.2071 22.4343V27.6157H39.9524L38.6987 35.6083H32.2071V54.9007C38.7723 53.875 44.7506 50.5613 49.0627 45.5578C53.3748 40.5543 55.7365 34.1907 55.7216 27.6157C55.7216 12.3747 43.1843 0 27.8608 0Z" fill="#233B51"/>
</g>
</svg>
