<svg width="57" height="55" viewBox="0 0 57 55" fill="none" xmlns="http://www.w3.org/2000/svg">
<g id="instagram">
<path id="Vector" fill-rule="evenodd" clip-rule="evenodd" d="M16.8875 0.877355C19.8585 0.74519 20.8058 0.71582 28.3738 0.71582C35.9418 0.71582 36.8891 0.747638 39.8575 0.877355C42.826 1.00707 44.8522 1.46475 46.6252 2.12803C48.4817 2.80598 50.166 3.86575 51.5591 5.23635C52.9775 6.58002 54.0716 8.20516 54.7707 10.0016C55.4596 11.7149 55.9307 13.6729 56.0675 16.5364C56.2042 19.4122 56.2346 20.3276 56.2346 27.6383C56.2346 34.9514 56.2017 35.8668 56.0675 38.7377C55.9332 41.6012 55.4596 43.5592 54.7707 45.2725C54.0716 47.0692 52.9756 48.697 51.5591 50.0427C50.166 51.4133 48.4817 52.4706 46.6252 53.1461C44.8522 53.8118 42.826 54.267 39.8626 54.3992C36.8891 54.5314 35.9418 54.5607 28.3738 54.5607C20.8058 54.5607 19.8585 54.5289 16.8875 54.3992C13.9241 54.2695 11.8979 53.8118 10.1249 53.1461C8.26565 52.4705 6.58108 51.4114 5.1885 50.0427C3.77109 48.6982 2.67422 47.0711 1.97437 45.2749C1.28798 43.5617 0.816876 41.6037 0.680105 38.7401C0.543333 35.8643 0.512939 34.949 0.512939 27.6383C0.512939 20.3252 0.545866 19.4098 0.680105 16.5413C0.814343 13.6729 1.28798 11.7149 1.97437 10.0016C2.67525 8.20536 3.77296 6.57834 5.19103 5.2339C6.58164 3.86453 8.26452 2.80462 10.1224 2.12803C11.8954 1.46475 13.9241 1.00952 16.8875 0.877355ZM39.6321 5.7234C36.694 5.59368 35.8126 5.56676 28.3738 5.56676C20.9349 5.56676 20.0535 5.59368 17.1155 5.7234C14.3978 5.84333 12.9237 6.28143 11.941 6.651C10.6416 7.1405 9.71209 7.72056 8.73696 8.66284C7.8126 9.53183 7.10122 10.5897 6.65499 11.7589C6.27254 12.7086 5.81916 14.133 5.69506 16.7592C5.56082 19.5983 5.53296 20.45 5.53296 27.6383C5.53296 34.8266 5.56082 35.6783 5.69506 38.5174C5.81916 41.1436 6.27254 42.568 6.65499 43.5176C7.10076 44.6851 7.81248 45.7449 8.73696 46.6137C9.6361 47.5071 10.7328 48.1948 11.941 48.6256C12.9237 48.9951 14.3978 49.4332 17.1155 49.5532C20.0535 49.6829 20.9324 49.7098 28.3738 49.7098C35.8152 49.7098 36.694 49.6829 39.6321 49.5532C42.3498 49.4332 43.8239 48.9951 44.8066 48.6256C46.106 48.1361 47.0355 47.556 48.0106 46.6137C48.9351 45.7449 49.6468 44.6851 50.0926 43.5176C50.475 42.568 50.9284 41.1436 51.0525 38.5174C51.1868 35.6783 51.2146 34.8266 51.2146 27.6383C51.2146 20.45 51.1868 19.5983 51.0525 16.7592C50.9284 14.133 50.475 12.7086 50.0926 11.7589C49.586 10.5034 48.9858 9.60513 48.0106 8.66284C47.1113 7.76968 46.0166 7.08227 44.8066 6.651C43.8239 6.28143 42.3498 5.84333 39.6321 5.7234ZM24.8152 35.9377C26.8026 36.7372 29.0155 36.8451 31.0761 36.243C33.1367 35.6409 34.917 34.3662 36.1131 32.6367C37.3091 30.9071 37.8466 28.8299 37.6338 26.7599C37.4211 24.6899 36.4712 22.7555 34.9464 21.287C33.9744 20.3484 32.7991 19.6296 31.5052 19.1825C30.2112 18.7355 28.8308 18.5712 27.4632 18.7015C26.0957 18.8319 24.7751 19.2536 23.5964 19.9363C22.4178 20.6191 21.4105 21.5458 20.647 22.6499C19.8835 23.754 19.3828 25.0079 19.181 26.3214C18.9792 27.6349 19.0813 28.9753 19.4799 30.2461C19.8786 31.5169 20.5638 32.6865 21.4864 33.6707C22.4089 34.6549 23.5458 35.4291 24.8152 35.9377ZM18.2476 17.8532C19.5774 16.5682 21.1561 15.5489 22.8936 14.8534C24.631 14.158 26.4932 13.8001 28.3738 13.8001C30.2544 13.8001 32.1166 14.158 33.854 14.8534C35.5915 15.5489 37.1702 16.5682 38.4999 17.8532C39.8297 19.1382 40.8846 20.6637 41.6042 22.3426C42.3239 24.0216 42.6943 25.821 42.6943 27.6383C42.6943 29.4555 42.3239 31.255 41.6042 32.9339C40.8846 34.6129 39.8297 36.1384 38.4999 37.4234C35.8143 40.0185 32.1718 41.4765 28.3738 41.4765C24.5757 41.4765 20.9333 40.0185 18.2476 37.4234C15.562 34.8282 14.0532 31.3084 14.0532 27.6383C14.0532 23.9682 15.562 20.4484 18.2476 17.8532ZM45.8704 15.8609C46.1999 15.5605 46.4637 15.1993 46.6462 14.7987C46.8287 14.398 46.9261 13.966 46.9327 13.5283C46.9393 13.0906 46.855 12.656 46.6847 12.2504C46.5144 11.8448 46.2616 11.4763 45.9412 11.1667C45.6209 10.8572 45.2396 10.6129 44.8198 10.4483C44.4 10.2838 43.9503 10.2023 43.4973 10.2086C43.0444 10.215 42.5973 10.3092 42.1827 10.4855C41.7681 10.6618 41.3943 10.9167 41.0834 11.2352C40.4788 11.8544 40.1479 12.677 40.1607 13.5283C40.1735 14.3796 40.5292 15.1925 41.1522 15.7945C41.7752 16.3965 42.6164 16.7401 43.4973 16.7526C44.3783 16.765 45.2295 16.4451 45.8704 15.8609Z" fill="#233B51"/>
</g>
</svg>
