<svg width="50" height="50" viewBox="0 0 50 50" fill="none" xmlns="http://www.w3.org/2000/svg">
<g id="viber_svgrepo.com">
<path id="Vector" d="M27.0833 8.33331C25.9327 8.33331 25 9.26606 25 10.4166C25 11.5672 25.9327 12.5 27.0833 12.5C29.735 12.5 31.7827 13.3748 33.1623 14.7544C34.5419 16.134 35.4167 18.1818 35.4167 20.8333C35.4167 21.9839 36.3494 22.9166 37.5 22.9166C38.6506 22.9166 39.5833 21.9839 39.5833 20.8333C39.5833 17.2349 38.3748 14.0743 36.1085 11.8081C33.8423 9.54188 30.6817 8.33331 27.0833 8.33331Z" fill="#F2EF2F"/>
<path id="Vector_2" d="M10.4459 16.6794C10.684 14.7967 13.1309 12.2378 15.0727 12.5217L15.0696 12.5186C16.6928 12.8271 18.0254 15.2701 18.9037 16.8801C19.048 17.1446 19.18 17.3866 19.299 17.593C19.8968 18.6542 19.5086 19.7294 18.9512 20.1831C18.8868 20.235 18.8192 20.2886 18.7497 20.3438C18.0079 20.9327 17.0441 21.6977 17.2697 22.4654C17.7084 23.9583 22.9167 29.1667 25.4784 30.6473C26.2628 31.1006 26.8726 30.2202 27.3949 29.4662C27.5182 29.2881 27.6367 29.1171 27.7515 28.9723C28.1878 28.3898 29.2638 28.0417 30.3226 28.6167C31.9038 29.5375 33.3934 30.6077 34.7709 31.8125C35.4588 32.3875 35.6203 33.2373 35.1436 34.1354C34.304 35.7173 31.8757 37.8033 30.113 37.3794C27.0342 36.6392 14.5834 31.8125 10.5841 17.8292C10.3747 17.2133 10.4094 16.954 10.4394 16.729L10.4459 16.6794Z" fill="#F2EF2F"/>
<path id="Vector_3" d="M27.0833 14.5833C25.9327 14.5833 25 15.5161 25 16.6666C25 17.8172 25.9327 18.75 27.0833 18.75C27.4475 18.75 27.9858 18.953 28.4748 19.4419C28.9635 19.9307 29.1667 20.4692 29.1667 20.8333C29.1667 21.9839 30.0994 22.9166 31.25 22.9166C32.4006 22.9166 33.3333 21.9839 33.3333 20.8333C33.3333 19.1141 32.4948 17.5692 31.421 16.4956C30.3475 15.422 28.8025 14.5833 27.0833 14.5833Z" fill="#F2EF2F"/>
<path id="Vector_4" fill-rule="evenodd" clip-rule="evenodd" d="M15.6612 49.6483C15.7205 49.681 15.7814 49.7108 15.8435 49.7375C16.9742 50.2238 18.3698 49.1381 21.1612 46.9671L23.9583 44.7917C29.5591 44.9771 34.4041 44.2421 38.15 42.9315C42.3389 41.4656 45.6325 38.1721 47.0983 33.9831C49.1183 28.2104 49.1183 17.6226 47.0983 11.8499C45.6325 7.66088 42.3389 4.36729 38.15 2.90148C31.4797 0.567517 18.3958 0.611057 11.8501 2.90148C7.66105 4.36729 4.36749 7.66088 2.90168 11.8499C0.881732 17.6226 0.881732 28.2104 2.90168 33.9831C4.36749 38.1721 7.66105 41.4656 11.8501 42.9315C12.6719 43.219 13.591 43.5344 14.5833 43.75C14.5833 47.2863 14.5833 49.0544 15.6612 49.6483ZM18.75 43.564V41.231C18.75 40.741 18.4083 40.3175 17.9291 40.215C16.3418 39.8756 14.764 39.5367 13.2262 38.9985C10.2341 37.9517 7.88153 35.599 6.83453 32.6069C6.03893 30.3331 5.55339 26.761 5.55339 22.9165C5.55339 19.0719 6.03893 15.4997 6.83453 13.226C7.88153 10.2339 10.2341 7.88134 13.2262 6.83434C15.8671 5.91025 20.244 5.33921 24.9579 5.334C29.6712 5.32879 34.0752 5.89007 36.7737 6.83434C39.7658 7.88134 42.1185 10.2339 43.1654 13.226C43.961 15.4997 44.4466 19.0719 44.4466 22.9165C44.4466 26.761 43.961 30.3331 43.1654 32.6069C42.1185 35.599 39.7658 37.9517 36.7737 38.9985C32.3327 40.5525 27.6229 40.7271 22.9664 40.5892C22.7231 40.5821 22.4845 40.6594 22.2925 40.8088L18.75 43.564Z" fill="#F2EF2F"/>
</g>
</svg>
